<svg width="628" height="424" viewBox="0 0 628 424" fill="none" xmlns="http://www.w3.org/2000/svg"><g filter="url(#filter0_f)"><ellipse cx="314" cy="313.5" rx="284" ry="14.5" fill="url(#paint0_radial)"/></g><g filter="url(#filter1_f)"><ellipse cx="285" cy="301.5" rx="83" ry="7.5" fill="url(#paint1_radial)"/></g><g filter="url(#filter2_f)"><ellipse cx="179.5" cy="299.5" rx="57.5" ry="7.5" fill="url(#paint2_radial)"/></g><g filter="url(#filter3_f)"><ellipse cx="445.5" cy="301.5" rx="57.5" ry="7.5" fill="url(#paint3_radial)"/></g><path d="M79.984 254.318v-35.231l70.289-166.528h42.276v166.528h18.389v35.231h-18.389V299h-37.98v-44.682H79.984zm35.574-35.231h39.011v-92.63l-39.011 92.63zm109.816 20.795V111.678c0-19.707 5.098-34.944 15.295-45.714 10.196-10.77 24.747-16.154 43.651-16.154 18.904 0 33.397 5.384 43.479 16.154 10.197 10.77 15.296 26.007 15.296 45.714v128.204c0 19.706-5.099 34.944-15.296 45.713-10.082 10.77-24.575 16.155-43.479 16.155s-33.455-5.385-43.651-16.155c-10.197-10.769-15.295-26.007-15.295-45.713zm38.839 2.406c0 16.269 6.702 24.403 20.107 24.403 13.29 0 19.935-8.134 19.935-24.403V109.272c0-16.155-6.645-24.232-19.935-24.232-13.405 0-20.107 8.077-20.107 24.232v133.016zm94.864 12.03v-35.231l70.289-166.528h42.276v166.528h18.389v35.231h-18.389V299h-37.98v-44.682h-74.585zm35.574-35.231h39.011v-92.63l-39.011 92.63z" fill="#FE0027"/><defs><radialGradient id="paint0_radial" cx="0" cy="0" r="1" gradientUnits="userSpaceOnUse" gradientTransform="matrix(0 14.5 -284 0 314 313.5)"><stop/><stop offset="1" stop-opacity="0"/></radialGradient><radialGradient id="paint1_radial" cx="0" cy="0" r="1" gradientUnits="userSpaceOnUse" gradientTransform="matrix(0 7.5 -83 0 285 301.5)"><stop/><stop offset="1" stop-opacity=".1"/></radialGradient><radialGradient id="paint2_radial" cx="0" cy="0" r="1" gradientUnits="userSpaceOnUse" gradientTransform="matrix(0 7.5 -57.5 0 179.5 299.5)"><stop/><stop offset="1" stop-opacity="0"/></radialGradient><radialGradient id="paint3_radial" cx="0" cy="0" r="1" gradientUnits="userSpaceOnUse" gradientTransform="matrix(0 7.5 -57.5 0 445.5 301.5)"><stop/><stop offset="1" stop-opacity="0"/></radialGradient><filter id="filter0_f" x="0" y="269" width="628" height="89" filterUnits="userSpaceOnUse" color-interpolation-filters="sRGB"><feFlood flood-opacity="0" result="BackgroundImageFix"/><feBlend in="SourceGraphic" in2="BackgroundImageFix" result="shape"/><feGaussianBlur stdDeviation="15" result="effect1_foregroundBlur"/></filter><filter id="filter1_f" x="192" y="284" width="186" height="35" filterUnits="userSpaceOnUse" color-interpolation-filters="sRGB"><feFlood flood-opacity="0" result="BackgroundImageFix"/><feBlend in="SourceGraphic" in2="BackgroundImageFix" result="shape"/><feGaussianBlur stdDeviation="5" result="effect1_foregroundBlur"/></filter><filter id="filter2_f" x="112" y="282" width="135" height="35" filterUnits="userSpaceOnUse" color-interpolation-filters="sRGB"><feFlood flood-opacity="0" result="BackgroundImageFix"/><feBlend in="SourceGraphic" in2="BackgroundImageFix" result="shape"/><feGaussianBlur stdDeviation="5" result="effect1_foregroundBlur"/></filter><filter id="filter3_f" x="378" y="284" width="135" height="35" filterUnits="userSpaceOnUse" color-interpolation-filters="sRGB"><feFlood flood-opacity="0" result="BackgroundImageFix"/><feBlend in="SourceGraphic" in2="BackgroundImageFix" result="shape"/><feGaussianBlur stdDeviation="5" result="effect1_foregroundBlur"/></filter></defs></svg>
