<svg xmlns="http://www.w3.org/2000/svg" xmlns:xlink="http://www.w3.org/1999/xlink" viewBox="0 0 420.8 331.2"><defs><style>.cls-1{fill:none;}.cls-2{clip-path:url(#clip-path);}</style><clipPath id="clip-path"><rect class="cls-1" width="420.8" height="331.2"/></clipPath></defs><title>camera</title><g id="Слой_2" data-name="Слой 2"><g id="Слой_1-2" data-name="Слой 1"><g class="cls-2"><path d="M406.8,51.6a45.24,45.24,0,0,0-33.2-14H307.2v-.8a35.91,35.91,0,0,0-10.8-26A36.6,36.6,0,0,0,270.4,0h-120a36.88,36.88,0,0,0-37.2,36.8v.8h-66A45.24,45.24,0,0,0,14,51.6,47.56,47.56,0,0,0,0,84.8V284a45.24,45.24,0,0,0,14,33.2,47.56,47.56,0,0,0,33.2,14H373.6a45.24,45.24,0,0,0,33.2-14,47.56,47.56,0,0,0,14-33.2V84.8a45.24,45.24,0,0,0-14-33.2M400,284h-.4a25.95,25.95,0,0,1-26,26H47.2a25.95,25.95,0,0,1-26-26V84.8a25.95,25.95,0,0,1,26-26h77.2A10.76,10.76,0,0,0,135.2,48V36.4a15.71,15.71,0,0,1,4.4-11.2,15.71,15.71,0,0,1,11.2-4.4H270.4a15.71,15.71,0,0,1,11.2,4.4A15.71,15.71,0,0,1,286,36.4V48a10.76,10.76,0,0,0,10.8,10.8H374a25.95,25.95,0,0,1,26,26Z"/><path d="M210.4,86A98.33,98.33,0,1,0,280,114.8,98.57,98.57,0,0,0,210.4,86m54.4,153.2a77.26,77.26,0,0,1-108.8,0,76.47,76.47,0,0,1-22.4-54.4A78.17,78.17,0,0,1,156,130.4,76.47,76.47,0,0,1,210.4,108a78.17,78.17,0,0,1,54.4,22.4,76.47,76.47,0,0,1,22.4,54.4c.4,21.2-8.4,40.4-22.4,54.4"/><path d="M352.8,85.6a19.6,19.6,0,1,1-19.6,19.6,19.6,19.6,0,0,1,19.6-19.6"/></g></g></g></svg>