<svg xmlns="http://www.w3.org/2000/svg" xmlns:xlink="http://www.w3.org/1999/xlink" viewBox="0 0 512 511.64"><defs><style>.cls-1{fill:none;}.cls-2{clip-path:url(#clip-path);}</style><clipPath id="clip-path" transform="translate(0 0)"><rect class="cls-1" width="512" height="511.64"/></clipPath></defs><title>cart</title><g id="Слой_2" data-name="Слой 2"><g id="Слой_1-2" data-name="Слой 1"><g class="cls-2"><path d="M418.78,334.61a91.45,91.45,0,0,0,32.6-46.23L512,108.92H122.34L118,61.25A67.15,67.15,0,0,0,51.14,0H0V40H51.14A27,27,0,0,1,78.22,64.81L109.5,411.65l0,.18a66.9,66.9,0,0,0,55.41,59.53,58.95,58.95,0,0,0,111.37,1.31h47a59,59,0,1,0,0-40h-47a58.95,58.95,0,0,0-110.05-2.25A27.08,27.08,0,0,1,149.31,408l-5-55.21H364.74a89.35,89.35,0,0,0,54-18.14m-40,99.09a19,19,0,1,1-19,19,19,19,0,0,1,19-19m-157.89,0a19,19,0,1,1-19,19,19,19,0,0,1,19-19M140.72,312.78h0L125.94,148.9H456.31L413.43,275.83l-.17.52c-6.6,21.45-26.55,36.44-48.52,36.44Z" transform="translate(0 0)"/></g></g></g></svg>