<svg xmlns="http://www.w3.org/2000/svg" xmlns:xlink="http://www.w3.org/1999/xlink" viewBox="0 0 512 512"><defs><style>.cls-1{fill:none;}.cls-2{clip-path:url(#clip-path);}</style><clipPath id="clip-path" transform="translate(0 0)"><rect class="cls-1" width="512" height="512"/></clipPath></defs><title>datapicker</title><g id="Слой_2" data-name="Слой 2"><g id="Слой_1-2" data-name="Слой 1"><g class="cls-2"><path d="M452,40H428V0H388V40H124V0H84V40H60A60.07,60.07,0,0,0,0,100V452a60.07,60.07,0,0,0,60,60H452a60.07,60.07,0,0,0,60-60V100a60.07,60.07,0,0,0-60-60m20,412a20,20,0,0,1-20,20H60a20,20,0,0,1-20-20V188H472Zm0-304H40V100A20,20,0,0,1,60,80H84v40h40V80H388v40h40V80h24a20,20,0,0,1,20,20Z" transform="translate(0 0)"/><rect x="76" y="230" width="40" height="40"/><rect x="156" y="230" width="40" height="40"/><rect x="236" y="230" width="40" height="40"/><rect x="316" y="230" width="40" height="40"/><rect x="396" y="230" width="40" height="40"/><rect x="76" y="310" width="40" height="40"/><rect x="156" y="310" width="40" height="40"/><rect x="236" y="310" width="40" height="40"/><rect x="316" y="310" width="40" height="40"/><rect x="76" y="390" width="40" height="40"/><rect x="156" y="390" width="40" height="40"/><rect x="236" y="390" width="40" height="40"/><rect x="316" y="390" width="40" height="40"/><rect x="396" y="310" width="40" height="40"/></g></g></g></svg>