<svg xmlns="http://www.w3.org/2000/svg" xmlns:xlink="http://www.w3.org/1999/xlink" viewBox="0 0 346.8 427"><defs><style>.cls-1{fill:none;}.cls-2{clip-path:url(#clip-path);}</style><clipPath id="clip-path"><rect class="cls-1" width="346.8" height="427"/></clipPath></defs><title>delete</title><g id="Слой_2" data-name="Слой 2"><g id="Слой_1-2" data-name="Слой 1"><g class="cls-2"><path d="M232.4,154.7a10,10,0,0,0-10,10v189a10,10,0,0,0,20,0v-189a10,10,0,0,0-10-10"/><path d="M114.4,154.7a10,10,0,0,0-10,10v189a10,10,0,0,0,20,0v-189a10,10,0,0,0-10-10"/><path d="M28.4,127.12V373.5c0,14.56,5.34,28.24,14.67,38.05A49.24,49.24,0,0,0,78.8,427H268a49.23,49.23,0,0,0,35.73-15.45c9.33-9.81,14.67-23.49,14.67-38.05V127.12A38.2,38.2,0,0,0,308.6,52H257.4V39.5A39.28,39.28,0,0,0,217.8,0H129A39.28,39.28,0,0,0,89.4,39.5V52H38.2a38.2,38.2,0,0,0-9.8,75.12M268,407H78.8c-17.1,0-30.4-14.69-30.4-33.5V128h250V373.5c0,18.81-13.3,33.5-30.4,33.5M109.4,39.5A19.27,19.27,0,0,1,129,20h88.8a19.27,19.27,0,0,1,19.6,19.5V52h-128ZM38.2,72H308.6a18,18,0,1,1,0,36H38.2a18,18,0,1,1,0-36"/><path d="M173.4,154.7a10,10,0,0,0-10,10v189a10,10,0,0,0,20,0v-189a10,10,0,0,0-10-10"/></g></g></g></svg>