<svg xmlns="http://www.w3.org/2000/svg" xmlns:xlink="http://www.w3.org/1999/xlink" viewBox="0 0 457.79 512"><defs><style>.cls-1{fill:none;}.cls-2{clip-path:url(#clip-path);}</style><clipPath id="clip-path" transform="translate(0 0)"><rect class="cls-1" width="457.8" height="512"/></clipPath></defs><title>kubok</title><g id="Слой_2" data-name="Слой 2"><g id="Слой_1-2" data-name="Слой 1"><g class="cls-2"><path d="M457.41,89a24.87,24.87,0,0,0-24.9-22.78H367.84V56.72h1.26A16.77,16.77,0,0,0,385.84,40V16.75A16.77,16.77,0,0,0,369.09,0H178.73a7.5,7.5,0,1,0,0,15H369.09a1.75,1.75,0,0,1,1.75,1.75V40a1.75,1.75,0,0,1-1.75,1.75H88.7A1.75,1.75,0,0,1,86.95,40V16.75A1.75,1.75,0,0,1,88.7,15h54.87a7.5,7.5,0,0,0,0-15H88.7A16.77,16.77,0,0,0,71.95,16.75V40A16.77,16.77,0,0,0,88.7,56.72H90v9.53H25.28A24.87,24.87,0,0,0,.38,89c-.15,1.7-3.52,42.12,13,86.89,15.14,41,49.89,93.26,129.5,113.79a138.77,138.77,0,0,0,43.33,23.18l3.77,6.23a77.59,77.59,0,0,1,10.91,40.27,80.24,80.24,0,0,1-4.21,25.83l-5.24,15.45H174a32.5,32.5,0,0,0-32.46,32.46v15.71H114.26a14,14,0,0,0-14,14V498a14,14,0,0,0,14,14H343.53a14,14,0,0,0,14-14V462.8a14,14,0,0,0-14-14H316.24V433.12a32.5,32.5,0,0,0-32.46-32.46H266.34l-5.24-15.45a80.2,80.2,0,0,1-4.22-25.83,77.6,77.6,0,0,1,10.91-40.27l3.77-6.23a138.76,138.76,0,0,0,43.33-23.18c79.61-20.53,114.35-72.82,129.5-113.79,16.55-44.77,13.18-85.19,13-86.89M92.73,208.35q-21-19.64-32-48.69a168.32,168.32,0,0,1-9.91-43.41H90v64.41a139.08,139.08,0,0,0,2.78,27.69M27.48,170.71c-15.39-41.64-12.3-78.79-12.16-80.35a10,10,0,0,1,10-9.11H90v20H50.19A14.44,14.44,0,0,0,35.81,117,183.59,183.59,0,0,0,46.68,165c11.13,29.4,29.14,52.35,53.79,68.69a139,139,0,0,0,19,32.46c-54.34-22.52-79.93-62.87-92-95.41M342.5,497H115.29V463.83H342.5Zm-58.72-81.34a17.48,17.48,0,0,1,17.46,17.46v15.71H156.56V433.12A17.48,17.48,0,0,1,174,415.66ZM246.89,390l3.61,10.63h-43.2L210.9,390a95.2,95.2,0,0,0,5-30.65,93.56,93.56,0,0,0-9.57-41.63,139.2,139.2,0,0,0,45.1,0,93.56,93.56,0,0,0-9.57,41.63,95.2,95.2,0,0,0,5,30.65m-18-85.44A124.08,124.08,0,0,1,105,180.66V56.72H352.84V180.66A124.08,124.08,0,0,1,228.9,304.59M430.31,170.71c-12,32.54-37.62,72.89-92,95.41a139,139,0,0,0,19-32.52A137.22,137.22,0,0,0,406,176.91a7.5,7.5,0,1,0-13.55-6.42,124,124,0,0,1-27.43,37.9,139,139,0,0,0,2.79-27.74V116.25H407A178.18,178.18,0,0,1,403.3,139a7.5,7.5,0,0,0,14.62,3.36A193.66,193.66,0,0,0,422,117a14.43,14.43,0,0,0-14.37-15.78H367.84v-20h64.68a10,10,0,0,1,10,9.11c.14,1.56,3.23,38.72-12.16,80.35" transform="translate(0 0)"/><path d="M278.21,145.66l-21.5-3.12a2.88,2.88,0,0,1-2.16-1.57l-9.62-19.49a17.87,17.87,0,0,0-32.06,0L203.25,141a2.87,2.87,0,0,1-2.17,1.57l-21.5,3.13a17.87,17.87,0,0,0-9.91,30.49l15.56,15.17a2.88,2.88,0,0,1,.83,2.55l-3.67,21.42a17.88,17.88,0,0,0,25.94,18.84L227.56,224a2.87,2.87,0,0,1,2.68,0l19.23,10.11a17.88,17.88,0,0,0,25.94-18.84l-3.67-21.42a2.87,2.87,0,0,1,.83-2.54l15.56-15.17a17.87,17.87,0,0,0-9.91-30.49Zm-.56,19.75-15.56,15.17a17.88,17.88,0,0,0-5.14,15.82l3.67,21.42a2.88,2.88,0,0,1-4.17,3l-19.24-10.11a17.87,17.87,0,0,0-16.63,0l-19.23,10.11a2.88,2.88,0,0,1-4.17-3l3.67-21.42a17.87,17.87,0,0,0-5.14-15.82l-15.56-15.17a2.88,2.88,0,0,1,1.59-4.9l21.51-3.12a17.87,17.87,0,0,0,13.46-9.78l9.62-19.49a2.87,2.87,0,0,1,5.15,0l9.62,19.49a17.87,17.87,0,0,0,13.46,9.78l21.51,3.13a2.88,2.88,0,0,1,1.6,4.9" transform="translate(0 0)"/></g></g></g></svg>