<svg xmlns="http://www.w3.org/2000/svg" xmlns:xlink="http://www.w3.org/1999/xlink" viewBox="0 0 360 512"><defs><style>.cls-1{fill:none;}.cls-2{clip-path:url(#clip-path);}</style><clipPath id="clip-path" transform="translate(0)"><rect class="cls-1" width="360" height="512"/></clipPath></defs><title>marker</title><g id="Слой_2" data-name="Слой 2"><g id="Слой_1-2" data-name="Слой 1"><g class="cls-2"><path d="M180,0C80.75,0,0,80.75,0,180a179.62,179.62,0,0,0,26.87,94.65L169.75,504.91A15,15,0,0,0,182.5,512h.12a15,15,0,0,0,12.75-7.29L334.61,272.22A179.8,179.8,0,0,0,360,180C360,80.75,279.25,0,180,0M308.87,256.82,182.27,468.19,52.37,258.85A149.82,149.82,0,0,1,29.8,180C29.8,97.29,97.29,29.8,180,29.8S330.1,97.29,330.1,180a149.87,149.87,0,0,1-21.23,76.82" transform="translate(0)"/><path d="M180,90a90,90,0,1,0,90,90,90.1,90.1,0,0,0-90-90m0,150.2A60.2,60.2,0,1,1,240.1,180,60.25,60.25,0,0,1,180,240.2" transform="translate(0)"/></g></g></g></svg>