<svg xmlns="http://www.w3.org/2000/svg" xmlns:xlink="http://www.w3.org/1999/xlink" viewBox="0 0 512.01 512"><defs><style>.cls-1{fill:none;}.cls-2{clip-path:url(#clip-path);}</style><clipPath id="clip-path" transform="translate(0 0)"><rect class="cls-1" width="512.01" height="512"/></clipPath></defs><title>search</title><g id="Слой_2" data-name="Слой 2"><g id="Слой_1-2" data-name="Слой 1"><g class="cls-2"><path d="M505.75,475.58,360.15,330a201.68,201.68,0,0,0,45.18-127.32C405.33,90.92,314.41,0,202.67,0S0,90.92,0,202.67,90.92,405.33,202.67,405.33A201.68,201.68,0,0,0,330,360.15l145.6,145.6a21.33,21.33,0,1,0,30.17-30.16M202.67,362.67c-88.24,0-160-71.76-160-160s71.76-160,160-160,160,71.77,160,160-71.77,160-160,160" transform="translate(0 0)"/></g></g></g></svg>