<svg xmlns="http://www.w3.org/2000/svg" xmlns:xlink="http://www.w3.org/1999/xlink" viewBox="0 0 485 485"><defs><style>.cls-1{fill:none;}.cls-2{clip-path:url(#clip-path);}</style><clipPath id="clip-path"><rect class="cls-1" width="485" height="485"/></clipPath></defs><title>soc-inst</title><g id="Слой_2" data-name="Слой 2"><g id="Слой_1-2" data-name="Слой 1"><path d="M30,30H455V455H30ZM0,485H485V0H0Z"/><g class="cls-2"><path d="M242,101.65c29.63,0,59.37-.73,88.88.24,28.65,1,51,23.77,52.42,52.55.85,15.24.49,30.48.49,45.72V325c0,24.51-10.12,43.53-32.55,54a68.19,68.19,0,0,1-27.07,5.73c-54.86.49-109.6.37-164.47.12-35.72-.12-59.5-24-59.5-59.74-.12-54.62-.24-109.24,0-163.86.12-36,24-59.74,60.11-59.86,27.19-.12,54.38,0,81.69,0Zm84.25,127.53c10,57.3-37.06,100-82.05,100.34-21.46.24-41-6.22-57.18-20.24-24.26-21.09-33.16-48.16-29.14-80H128.74c-.12,2-.24,3.66-.24,5.24v90.83c0,19.87,11.58,31.33,31.46,31.33H323.81c20.24,0,31.58-11.46,31.58-31.82V235.27c0-2-.24-3.9-.37-6.1Zm-27.68,14.75c1-30.6-24.14-56.33-55.84-57.3-30.72-1-56.33,24-57.3,55.84-1,30.6,24.14,56.33,55.84,57.3,30.6.85,56.33-24.14,57.3-55.84m42.31-99.61h-41.7V186h41.7Z"/></g></g></g></svg>