<svg xmlns="http://www.w3.org/2000/svg" xmlns:xlink="http://www.w3.org/1999/xlink" viewBox="0 0 511 489.69"><defs><style>.cls-1{fill:none;}.cls-2{clip-path:url(#clip-path);}</style><clipPath id="clip-path" transform="translate(0)"><rect class="cls-1" width="511" height="489.69"/></clipPath></defs><title>star</title><g id="Слой_2" data-name="Слой 2"><g id="Слой_1-2" data-name="Слой 1"><g class="cls-2"><path d="M509.66,185a27.12,27.12,0,0,0-23.36-18.65L338.8,153,280.5,16.5a27.17,27.17,0,0,0-50,0L172.23,153,24.69,166.38A27.19,27.19,0,0,0,9.26,213.9l111.51,97.77L87.89,456.48a27.16,27.16,0,0,0,40.41,29.36l127.2-76.05,127.18,76.05a27.18,27.18,0,0,0,40.44-29.36L390.24,311.67,501.74,213.9A27.19,27.19,0,0,0,509.66,185" transform="translate(0)"/></g></g></g></svg>