<svg xmlns="http://www.w3.org/2000/svg" xmlns:xlink="http://www.w3.org/1999/xlink" viewBox="0 0 512 512"><defs><style>.cls-1{fill:none;}.cls-2{clip-path:url(#clip-path);}</style><clipPath id="clip-path" transform="translate(0 0)"><rect class="cls-1" width="512" height="512"/></clipPath></defs><title>time</title><g id="Слой_2" data-name="Слой 2"><g id="Слой_1-2" data-name="Слой 1"><g class="cls-2"><path d="M256,512A256,256,0,0,1,75,75,256,256,0,0,1,437,437a254.33,254.33,0,0,1-181,75m0-482A226,226,0,0,0,96.19,415.81,226,226,0,1,0,415.81,96.19,224.52,224.52,0,0,0,256,30" transform="translate(0 0)"/><rect x="241" y="60.04" width="30" height="40.03"/><rect x="360.35" y="116.61" width="40.03" height="30" transform="translate(18.34 307.5) rotate(-45)"/><rect x="411.93" y="241" width="40.03" height="30"/><rect x="365.33" y="360.4" width="30" height="40.03" transform="translate(-157.6 380.36) rotate(-45)"/><rect x="241" y="411.93" width="30" height="40.03"/><rect x="111.52" y="365.39" width="40.03" height="30" transform="translate(-230.45 204.43) rotate(-45)"/><rect x="60.04" y="241" width="40.03" height="30"/><rect x="116.56" y="111.57" width="30" height="40.03" transform="translate(-54.51 131.57) rotate(-45)"/><polygon points="361.89 271 241 271 241 150.11 271 150.11 271 241 361.89 241 361.89 271"/></g></g></g></svg>