<svg xmlns="http://www.w3.org/2000/svg" xmlns:xlink="http://www.w3.org/1999/xlink" viewBox="0 0 512 512"><defs><style>.cls-1{fill:none;}.cls-2{clip-path:url(#clip-path);}</style><clipPath id="clip-path" transform="translate(0 0)"><rect class="cls-1" width="512" height="512"/></clipPath></defs><title>user</title><g id="Слой_2" data-name="Слой 2"><g id="Слой_1-2" data-name="Слой 1"><g class="cls-2"><path d="M437,331a255,255,0,0,0-97.28-61A148,148,0,0,0,404,148C404,66.39,337.61,0,256,0S108,66.39,108,148a148,148,0,0,0,64.26,122A256.4,256.4,0,0,0,0,512H40c0-119.1,96.9-216,216-216s216,96.9,216,216h40a254.34,254.34,0,0,0-75-181M256,256A108,108,0,1,1,364,148,108.12,108.12,0,0,1,256,256" transform="translate(0 0)"/></g></g></g></svg>