<svg xmlns="http://www.w3.org/2000/svg" xmlns:xlink="http://www.w3.org/1999/xlink" viewBox="0 0 485 485"><defs><style>.cls-1{fill:none;}.cls-2{clip-path:url(#clip-path);}</style><clipPath id="clip-path"><rect class="cls-1" width="485" height="485"/></clipPath></defs><title>vk</title><g id="Слой_2" data-name="Слой 2"><g id="Слой_1-2" data-name="Слой 1"><g class="cls-2"><path d="M144.75,276c12.16,16.48,26.13,31,44.18,41.36,20.44,11.68,42.45,15.21,65.66,14.13,10.84-.52,14.1-3.35,14.6-14.15.34-7.4,1.19-14.78,4.84-21.44s9-7.76,15.29-3.7a43.5,43.5,0,0,1,8.24,7.36c6.11,6.67,12,13.57,18.35,20,8,8.1,17.39,12.88,29.23,11.9l45.88,0c7.38-.5,11.22-9.55,7-17.82a89.33,89.33,0,0,0-11-15.88c-9.37-11.26-20.42-20.86-30.87-31-9.41-9.19-10-14.53-2.45-25.13,8.28-11.59,17.15-22.71,25.49-34.23,7.78-10.77,15.76-21.52,19.84-34.39,2.61-8.22.3-11.84-8.09-13.29a27.63,27.63,0,0,0-4.44-.24l-49.92-.06c-6.15-.1-9.53,2.59-11.7,8-2.95,7.37-6,14.73-9.48,21.82-7.92,16.12-16.78,31.7-29.2,44.88-2.75,2.9-5.79,6.59-10.37,5.07-5.71-2.09-7.4-11.52-7.31-14.7l0-57.62c-1.11-8.21-2.95-11.9-11.12-13.5H205.47c-6.9,0-10.39,2.69-14.09,7-2.11,2.51-2.77,4.12,1.61,5,8.59,1.63,13.47,7.2,14.75,15.82,2.05,13.79,1.91,27.64.72,41.47a38.46,38.46,0,0,1-2.63,11.84c-2.5,5.95-6.57,7.14-11.88,3.48-4.79-3.3-8.18-8-11.5-12.64A279.45,279.45,0,0,1,152,168.89c-2.33-5.75-6.37-9.24-12.46-9.34-15-.24-30-.27-44.94,0-9,.16-11.68,4.54-8,12.72,16.3,36.28,34.45,71.55,58.16,103.67"/><path d="M0,485H485V0H0Zm455-30H30V30H455Z"/></g></g></g></svg>