<svg xmlns="http://www.w3.org/2000/svg" xmlns:xlink="http://www.w3.org/1999/xlink" viewBox="0 0 511 369.27"><defs><style>.cls-1{fill:none;}.cls-2{clip-path:url(#clip-path);}</style><clipPath id="clip-path" transform="translate(0)"><rect class="cls-1" width="511" height="369.27"/></clipPath></defs><title>youtube</title><g id="Слой_2" data-name="Слой 2"><g id="Слой_1-2" data-name="Слой 1"><g class="cls-2"><path d="M255.48,369.27h-.14c-15.42-.11-151.73-1.35-190.35-11.79A79,79,0,0,1,9.42,301.94C-.68,264,0,191,0,185.13s-.72-79.45,9.36-117.7l0-.11c7.19-26.69,29-48.63,55.51-55.9l.2-.05C103.31,1.33,239.9.1,255.35,0h.28C271.08.1,407.76,1.35,446,11.81a79,79,0,0,1,55.51,55.45C512,105.54,511,179.34,510.93,185.57c.07,6.14.69,78.52-9.36,116.65l0,.11a79,79,0,0,1-55.6,55.54l-.11,0c-38.18,10-174.76,11.26-190.21,11.37ZM48,77.67c-8.87,33.76-8,106.47-8,107.2v.53c-.26,20.16.67,78.56,8,106.22a38.93,38.93,0,0,0,27.4,27.32c28.5,7.71,139.52,10.13,180.09,10.42,40.68-.28,151.87-2.64,180.15-10A39,39,0,0,0,463,292c7.37-28.06,8.3-86.17,8-106.21,0-.21,0-.42,0-.63.37-20.41-.35-79.48-8-107.36a.58.58,0,0,1,0-.08,39,39,0,0,0-27.42-27.38c-28.22-7.72-139.42-10.13-180.09-10.42-40.65.28-151.73,2.64-180.1,10A40,40,0,0,0,48,77.67M482.27,297.14h0ZM204.6,265.47V103.79l139.73,80.84Z" transform="translate(0)"/></g></g></g></svg>