<svg xmlns="http://www.w3.org/2000/svg" xmlns:xlink="http://www.w3.org/1999/xlink" viewBox="0 0 485 485"><defs><style>.cls-1{fill:none;}.cls-2{clip-path:url(#clip-path);}</style><clipPath id="clip-path"><rect class="cls-1" width="485" height="485"/></clipPath></defs><title>yt</title><g id="Слой_2" data-name="Слой 2"><g id="Слой_1-2" data-name="Слой 1"><g class="cls-2"><path d="M124.54,347.92c39.06,4.35,78.59,4.38,117.95,4.35s78.91,0,118-4.35c16.49-1.84,30.19-14.21,34.05-31C400,293.11,400,267.06,400,242.5s.05-50.6-5.45-74.45c-3.86-16.76-17.56-29.12-34.06-31-39.05-4.37-78.59-4.38-117.95-4.37s-78.91,0-118,4.37c-16.48,1.84-30.18,14.19-34,31C85.07,191.89,85,217.94,85,242.5s0,50.61,5.5,74.46c3.84,16.75,17.54,29.12,34,31m77.32-160.69L302,239.47,201.86,291.4Z"/><path d="M0,485H485V0H0Zm455-30H30V30H455Z"/></g></g></g></svg>